<?xml version="1.0" encoding="utf-8"?>
<!-- Generator: Adobe Illustrator 24.0.1, SVG Export Plug-In . SVG Version: 6.00 Build 0)  -->
<svg version="1.1" id="Layer_1" xmlns="http://www.w3.org/2000/svg" xmlns:xlink="http://www.w3.org/1999/xlink" x="0px" y="0px"
	 width="580px" height="128px" viewBox="0 0 580 128" style="enable-background:new 0 0 580 128;" xml:space="preserve">
<style type="text/css">
	.st0{fill:#212526;}
	.st1{fill:#DF4456;}
	.st2{fill:#CC364B;}
	.st3{fill:#D39256;}
	.st4{fill:#FFC74F;}
	.st5{fill:#F24962;}
	.st6{fill:#FFFFFF;}
</style>
<g id="layer101">
	<path class="st0" d="M91.5,115.2c-10.8-0.3-23.4-3.3-34.1-8.2c-8.3-3.8-15.4-8.2-22-13.7c-2.4-2-7.6-7.2-9.6-9.6
		c-7.2-8.6-11.9-18.3-14-28.5c-1-5-1.3-8.6-0.7-11.5c1-5.5,4.3-10.4,9-13.2l1.1-0.7v-0.7c0-1.9,0.6-4.3,1.4-6.3
		c2.2-5.1,7.1-8.8,12.9-9.8c1.8-0.3,4.9-0.3,6.7,0.1c5.5,1.1,10.4,5.2,12.4,10.2c0.2,0.6,0.4,1,0.4,1.1c0,0,0.5-0.2,1.1-0.5
		c2.5-1.2,4.9-0.9,7,0.8c1.3,1.1,2.1,2.3,3.7,5.7c3.4,7.6,10.3,14.2,19.8,19c5.3,2.7,8.8,3.6,15.2,3.6c1.9,0,3.7,0.1,4.2,0.2
		c0.4,0.1,1.3,0.5,2,0.8c2.1,1,4.2,3.1,4.9,5.1l0.3,0.8h1.1c5.9,0,10.9,2.1,13.7,5.9c5,6.6,3.6,16.2-3.4,23.4l-0.9,0.9l0.1,1
		c0.2,1.5,0.2,4.3-0.1,5.9c-0.6,4-2.2,7.1-5.1,10c-2.6,2.6-5.6,4.4-9.9,5.8C103.5,114.6,97.7,115.4,91.5,115.2z"/>
</g>
<g id="layer102">
	<path class="st1" d="M101.4,94.7c-0.3,0-0.5-0.2-0.6-0.4c-0.1-0.2-0.1-1.7-0.1-3.3c0-2.8-0.1-3.1-0.4-4.3c-0.7-2.2-1.5-3.5-3.3-5.2
		c-2.1-2-4.3-3.2-8.7-4.6c-1.4-0.4-2.6-0.9-2.6-0.9c-0.1-0.1,0-0.5,0.1-1.1c0.1-0.5,0.4-1.8,0.7-2.8c0.8-3.6,1.8-6.1,3.1-7.7
		c1.4-1.6,2.5-2,3.9-1.4c1.5,0.7,2,1.6,2.1,3.9c0.1,1.5,0.1,1.7,0.5,2.3c0.6,1,1.3,1.4,2.5,1.5c1.6,0.1,2.8-0.7,3.3-2.1
		c0.4-1.1,0.2-4.4-0.3-5.7c-0.1-0.2,0.3-0.2,3.7-0.3c2.3,0,4.2-0.1,4.7-0.3c1.4-0.3,6.6-0.3,8.1,0.1c5.5,1.2,8.9,4.3,10.2,9.1
		c0.4,1.6,0.5,5.1,0.1,6.8c-0.7,3.2-2.2,6.2-4,8.2c-0.4,0.4-0.6,0.8-0.7,0.8c0,0.2-2.8,2.6-3.9,3.3c-3.1,2.1-6.9,3.4-11.1,4
		C107,94.8,102.6,94.9,101.4,94.7z M124.7,77c0.7-0.7,1.4-2.1,1.5-3.1c0.2-2.4-1.7-4.1-4.7-4.2c-1,0-1.2,0-1.3,0.2
		c0,0.2,0.3,0.4,1.4,1c1.5,0.7,2.2,1.3,2.5,1.9c0.3,0.5,0.2,1.8-0.1,3.1C123.6,77.6,123.8,77.9,124.7,77z"/>
	<path class="st1" d="M76.5,72.3c-1.5-0.7-2.7-1.4-2.7-1.4s0.7-1,1.6-2c4-4.5,5.7-7.5,6.3-10.8c0-0.3,0.1-0.6,0.2-0.7
		c0-0.1,0.4,0.1,0.8,0.3s1.2,0.6,1.9,0.8l1.1,0.5l-0.6,0.7c-0.9,1.1-1.9,2.6-2.8,4.4c-0.9,1.9-1.6,3.8-2.4,7.1
		c-0.3,1.3-0.6,2.5-0.7,2.5C79.3,73.6,78,73,76.5,72.3z"/>
	<path class="st1" d="M66.8,66.7c-2-1.4-3.6-2.6-3.6-2.8c0-0.1,0.1-0.2,0.1-0.3c0.3-0.2,1.8-2.6,2.8-4.4c2.1-3.9,3.9-6,5.8-6.6
		c0.9-0.3,1.6,0,2.4,0.9c0.8,1,1.1,1.9,1,3.2c-0.1,0.8-0.2,1.2-0.8,2.4c-0.9,1.7-1.6,2.7-3.7,5.1c-0.9,1-1.8,2.1-2.1,2.5
		c-0.3,0.4-0.6,0.7-0.7,0.7C68,67.5,67.4,67.1,66.8,66.7z"/>
	<path class="st1" d="M56.1,57.8c-1.9-2-3.1-3.3-3-3.4c0,0,1.2-0.6,2.6-1.3c2.6-1.3,4.3-2.3,5.6-3.4c1.1-0.9,2.7-2.5,3.4-3.6
		l0.7-0.9l1.1,1.1c0.6,0.6,1.1,1.2,1.1,1.2S67.3,47.7,67,48c-2.2,1.4-4.1,3.7-6.3,7.7c-1.2,2.1-2.5,4.1-2.6,4.1
		C58,59.7,57.1,58.9,56.1,57.8z"/>
	<path class="st1" d="M48.2,48.3c-2.1-3-4.1-6.3-6.1-10.3c-0.7-1.4-1.6-3-2-3.5c-2.2-3.1-5.5-5.3-9.2-6c-2.2-0.4-5.5-0.2-7.3,0.4
		L23,29.1l0.1-1.1c0.3-3.3,1.8-6.5,4.2-8.8c1.3-1.3,2.2-1.9,3.9-2.7c7-3.5,15.6-1.5,19.8,4.7c0.7,1.1,1.3,2.2,2.2,4.6
		c0.4,1.1,1.2,2.9,1.6,3.8c0.5,1,0.8,1.8,0.8,1.8s-0.4,0.1-0.8,0.3c-1.3,0.4-3.4,1.4-3.9,1.9c-1.8,1.6-1.4,4.2,0.8,5.4
		c0.8,0.4,2.1,0.2,3.9-0.6c2.4-1.1,3.7-1.1,4.5,0.2c0.4,0.7,0.4,2,0,2.9c-0.5,1-2.7,3.2-4,4.1c-1,0.7-6.8,3.6-7,3.6
		C48.9,49.2,48.5,48.8,48.2,48.3z M31.1,22.7c0.1-0.1,0.3-0.5,0.6-1c1.4-3.1,2.3-3.6,5.4-2.7c0.8,0.2,1.2,0.3,1.3,0.2
		c0.2-0.2-0.2-0.8-1.1-1.4c-2.9-1.9-5.6-0.9-6.5,2.4c-0.1,0.5-0.2,1.2-0.2,1.7C30.6,22.8,30.8,23,31.1,22.7z"/>
</g>
<g id="layer103">
	<path class="st2" d="M71.6,85.3c-1.9-0.5-3.9-2-4.8-3.8c-0.8-1.6-1.1-3.1-1-5.1s0.4-3.1,1.4-5c0.6-1.1,1.7-2.8,2.6-3.8
		c0.2-0.2,0.4-0.5,0.6-0.7c0.4-0.5,1.9-2.2,2.1-2.3c1.2-1.3,3.3-4.2,3.7-5.5c1-2.4,0.7-4.8-0.8-6.4c-1.4-1.6-2.9-1.8-4.8-0.9
		c-1.9,0.9-3.6,3-5.7,6.8c-1.7,3.1-2.9,4.8-5.2,7c-3.3,3.3-6.4,4.9-9.8,5.1c-2.6,0.2-4.8-0.7-6.7-2.6c-2.1-2.1-2.9-4.6-2.3-7.5
		c0.6-2.8,2.5-5.6,5.5-8c1.1-0.9,3.4-2.2,6.1-3.6c1.7-0.8,3.6-1.9,4.2-2.3c1.4-0.9,3.6-3,4.2-4c1.1-1.9,1-4.1-0.3-5.4
		c-1.4-1.4-3.1-1.3-6.3,0.2c-1.2,0.6-1.5,0.6-2.2,0.3c-1-0.5-1.3-1.7-0.7-2.6c0.4-0.6,2.6-1.7,4.5-2.2c1.1-0.3,1.6-0.3,2.8-0.3
		s1.5,0.1,2.4,0.6c1.8,0.9,3.5,2.7,4,4.4c0.6,2.1,0.4,4.5-0.6,6.5c-0.9,1.8-3.4,4.4-5.6,5.8c-0.7,0.5-2.7,1.6-4.4,2.4
		c-3.9,2-5.5,3-7.1,4.6c-2.5,2.5-3.4,5-2.6,7.1c0.6,1.5,2.5,2.9,4.3,3.1c2.7,0.2,6.6-2,9.5-5.5c1.1-1.4,2.1-2.8,3.3-5
		c1.4-2.6,2.5-4.1,3.8-5.5s2.1-2,3.5-2.7c4.7-2.4,10.1,0.6,11.2,6.2c0.6,3.2-0.6,7.1-3.6,10.7c-0.6,0.7-3.5,4.1-3.7,4.2
		c-0.4,0.3-2,2.7-2.5,3.7c-2,3.8-1,7.7,2,8.5c1.8,0.5,4.7-1,6.1-3c1.1-1.7,1.7-3.2,2.7-7.5c0.9-3.5,1.4-5,2.4-7
		c2.3-4.6,5.4-6.8,9-6.5c2.9,0.2,5.7,2.1,6.9,4.6c0.7,1.5,0.9,2.2,0.9,4.2c0,1.8-0.1,2.2-1,2.7c-0.6,0.4-1.2,0.4-1.8,0
		c-0.7-0.4-0.9-0.8-0.9-2.5c-0.1-1.9-0.4-2.7-1.3-3.7c-0.9-1-2.1-1.6-3.5-1.6c-1.1,0-1.6,0.2-2.6,1c-1.3,1-2.7,3.5-3.5,5.8
		c-0.2,0.6-0.7,2.5-1.1,4.1c-1.1,4.3-1.8,6.3-3.2,8.3C79.5,84.2,75.1,86.1,71.6,85.3z"/>
</g>
<g id="layer104">
	<path class="st3" d="M89.6,113.1c-16.6-0.9-35.3-7.8-49.3-18.3c-14.4-10.9-23.5-24.4-26.8-40c-1.3-6.2-1.3-9.5-0.1-13.3
		c1.8-5.6,6.7-10.1,12.1-11.2c1.6-0.3,4.5-0.2,5.9,0.2c2.2,0.7,3.7,1.5,5.2,2.9c1.3,1.2,2.3,2.6,3.7,5.4c2.2,4.3,4.3,7.8,6.2,10.4
		c0.4,0.5,0.7,1,0.7,1s-0.6,0.5-1.3,1.1c-4.8,3.6-7.3,8.7-6.3,13.1c0.4,1.7,1.2,3.3,2.6,4.6c0.7,0.7,1.6,1.4,2,1.7
		c4.7,2.8,10.6,1.4,16.1-3.7l1.6-1.5l1.4,1c0.8,0.6,1.9,1.4,2.5,1.8l1.2,0.8l-0.3,0.5c-0.7,1.2-1,1.7-1.4,2.9
		C63.2,78,65.1,83.9,69.6,86c1.4,0.6,2.3,0.8,3.9,0.8c2.8,0,5.9-1.4,8-3.6c1.1-1.2,2.5-3.3,3-4.4c0.2-0.5,0.4-0.8,0.5-0.8
		s0.6,0.1,1.1,0.3c0.5,0.2,1.5,0.5,2.3,0.7c5.9,1.9,9.2,4.6,10.2,8.5c0.2,0.6,0.2,1.6,0.3,3.8c0,2.1,0.1,3.2,0.3,4
		c0.8,3.6,3.3,5.7,6.8,5.7c0.8,0,1.1-0.3,1.1-1c0-0.6-0.4-0.9-1-0.9c-0.7,0-1.9-0.3-2.5-0.6c-0.5-0.3-1.5-1.2-1.7-1.6
		c-0.1-0.2,0-0.3,2.6-0.3c4.2,0,7-0.4,10.4-1.6c1.9-0.7,3.9-1.6,5.5-2.6c0.7-0.4,1.2-0.7,1.3-0.7c0,0,0.1,1,0.1,2.1
		c0,5-1.4,8.7-4.6,11.9c-4.3,4.4-11.4,6.8-20.8,7.4C93.4,113.3,92.8,113.3,89.6,113.1z"/>
	<path class="st3" d="M72.7,84c-1.2-0.3-1.7-0.6-2.9-1.4c-1.6-1.1-3-3.3-3.6-5.2c-0.1-0.5-0.3-1.1-0.4-1.2c-0.2-0.3-0.2-0.3,0.5-2.5
		c0.4-1.3,1.4-3.3,2.5-4.7c0.5-0.6,1.8-2.3,3-3.6c1.9-2.2,2.9-3.5,4.9-6.5c2.2-3.3,1-7-2.6-8.3c-0.9-0.3-2.6-0.3-3.6,0.1
		c-1.3,0.5-2.5,1.7-3.3,3.3c-0.8,1.7-1,2.1-3.5,6.4c-0.5,1-2.1,3-3.3,4.5c-0.9,1.1-3.3,3-4.9,4c-2.6,1.5-4,1.9-6.3,1.4
		c-3.6-0.7-6.2-3.1-7.3-6.8c-0.4-1.2-0.5-3.6-0.3-4.6c0.5-2.3,3.9-5.9,7.8-8.2c1.2-0.7,1.6-0.9,4.6-2.3c2-1,3.6-2,5.1-3.4
		c0.6-0.6,1.4-1.3,1.8-1.5c1.3-0.9,1.9-2.1,1.9-3.5c0-1.2-0.3-2.1-1-2.9c-1-1.1-2.7-1.6-4.1-1.1c-0.6,0.2-3.3,1.3-3.9,1.6
		c-0.9,0.5-2.1,0.2-2.4-0.6c-0.3-0.7-0.2-1.5,0.1-1.9c0.2-0.2,0.6-0.5,1-0.8c0.4-0.2,0.8-0.4,0.8-0.5c0.1-0.2,1.9-0.8,3.1-1.1
		c0.8-0.2,1.5-0.2,2.4-0.2c1.6,0.1,2.9,0.7,4.3,1.9c1.8,1.7,2.6,4,2.3,6.6c-0.2,1.5-0.5,2.4-1.3,3.6c-0.7,1-3.2,3.9-3.4,3.9
		c-0.1,0-0.5,0.3-1.1,0.7c-0.8,0.6-2,1.3-3.2,2c-0.1,0.1-1.3,0.7-2.7,1.3c-3.2,1.6-4.5,2.4-6.2,4.2c-2.2,2.2-3,3.8-3,5.9
		c0,0.8,0.1,1.2,0.4,1.8c1.1,2.2,3.6,3.3,6,2.7c3.6-0.8,7.9-4.7,10.4-9.2c2.2-4,3.3-5.6,5.3-7.5c1.6-1.5,2.9-2.3,4.7-2.6
		c4.2-0.7,8.1,2.3,9.1,7c0.3,1.5,0.2,3.1-0.2,4.5c-0.5,1.5-1.8,4-2.8,5.3c-0.5,0.7-1,1.4-1.1,1.5s-0.4,0.4-0.6,0.6
		c-0.3,0.2-0.5,0.5-0.5,0.5c0,0.1-0.3,0.4-0.6,0.6C74.2,68,74,68.2,74,68.3c0,0.1-0.3,0.4-0.7,0.9c-1.8,1.9-3.2,4.3-3.7,6.2
		c-0.3,1-0.2,2.6,0.1,3.6c0.2,0.8,1,1.8,1.7,2.3c0.6,0.4,0.7,0.4,2,0.4c1.2,0,1.5,0,2.2-0.4c1.2-0.6,2.1-1.3,2.9-2.3
		c1.3-1.7,1.9-3.3,3.1-8.2c1-4.2,1.9-6.5,3.3-8.6c0.2-0.3,0.6-0.9,0.9-1.3c1-1.5,3.2-2.9,5-3.3c3.4-0.7,7.3,1.4,8.9,4.5
		c0.7,1.3,0.8,2,0.9,3.7c0.1,1,0,1.4-0.2,2c-0.4,1.2-1.6,1.7-2.6,1.1C97.3,68.6,97,68,97,66.6c0-2.6-0.5-4.2-1.7-5.3
		c-0.9-0.8-1.8-1.1-3.2-1.1c-3,0.2-5.4,3-5.9,6.8c-0.1,0.5-0.2,1.1-0.3,1.4c-0.1,0.3-0.5,1.9-0.9,3.4c-1.1,4.4-2,6.9-3.4,8.7
		c-0.3,0.4-0.6,0.9-0.8,1.2c-0.4,0.6-1.6,1.4-2.9,1.8C76.4,84.3,74.2,84.3,72.7,84z"/>
	<path class="st3" d="M72.5,80.2c-0.4-0.2-1.1-1-1.3-1.6c-0.1-0.3-0.2-1-0.1-1.9c0.1-1.2,0.1-1.5,0.6-2.4c0.3-0.6,0.6-1.2,0.8-1.4
		l0.3-0.3l2.1,1c1.1,0.6,2.5,1.2,3,1.5c1.1,0.5,1.1,0.5,0.3,2.1c-0.7,1.3-1.6,2.2-2.8,2.8C74.2,80.4,73.2,80.5,72.5,80.2z"/>
	<path class="st3" d="M47.9,65.3c-0.7-0.3-1.5-1-1.8-1.6s-0.3-2,0-2.8c0.4-1.1,1.2-2.1,2.2-3.2c1-1,2.7-2.3,2.9-2.3
		c0.1,0,0.4,0.4,0.8,0.8c0.4,0.4,1.6,1.7,2.7,2.9l2.1,2.1l-1.2,1.2C52.8,65.1,49.9,66.2,47.9,65.3z"/>
	<path class="st3" d="M101,60.6c-0.4-0.1-0.7-0.3-1.3-1c-1.9-2.1-4.7-3.4-7.4-3.4c-1.4,0-2.4,0.2-3.9,0.9l-0.9,0.4L85.9,57
		c-0.8-0.3-2-0.9-2.7-1.2L82,55.2l-0.2-1c-1-4-3.4-6.7-6.9-7.8c-1.1-0.3-1.4-0.4-2.7-0.3c-0.8,0-1.7,0.2-2,0.3l-0.5,0.2L67.9,45
		l-1.6-1.6l0.2-0.7c0.2-0.5,0.2-1.3,0.2-2.6c0-1.8,0-2-0.4-3.1c-1.2-3.4-4.1-5.6-7.6-5.9L57.5,31l-0.9-2c-1.3-2.6-1.3-2.6-0.5-3.1
		c0.9-0.6,1.6-0.8,2.7-0.8c2,0,3.6,1.3,5,4.2c2,4.1,2.3,4.7,3.3,6.2c4.2,6.4,10.6,11.8,18.7,15.9c2.9,1.5,5.6,2.4,8.4,3
		c2.5,0.5,4.1,0.7,7.3,0.7c3.1,0,3.9,0.1,5.4,0.8c0.8,0.4,1.3,0.7,2.2,1.7c1,1,1.8,2.2,1.8,2.7c0,0.1-0.4,0.2-2.4,0.5
		C107.2,60.8,101.9,60.8,101,60.6z"/>
</g>
<g id="layer105">
	<path class="st4" d="M78.5,102.2c-3.3-0.4-9.4-2.3-13.7-4.2C54.9,93.7,45,86.6,37.1,78.1C27.1,67.3,20.7,55.5,19.2,45
		c-0.3-2.3-0.2-6.5,0.2-8.3c0.2-0.7,0.3-1.4,0.4-1.6c0-0.2,0-0.3-0.1-0.3c-0.3,0-2.7,1.7-3.7,2.7l-1.1,1l0.3-0.6
		c1.5-2.6,4.8-5.5,7.8-6.7c2-0.8,3.3-1,5.6-0.9c3.2,0.1,5.7,1.1,8,3.2c1.3,1.2,2.3,2.6,3.7,5.4c2.2,4.3,4.3,7.8,6.2,10.4
		c0.5,0.7,0.7,1,0.5,1.2c-0.1,0.1-0.6,0.5-1.2,0.9c-2.1,1.4-4.4,4.1-5.5,6.5c-0.3,0.6-0.6,1.4-0.8,1.7s-0.5,1-0.8,1.6
		c-2.5,4.9,0.1,10.8,5.5,12.4c1.2,0.3,3.4,0.3,4.6,0c0.5-0.1,1.4-0.5,2-0.9c0.7-0.3,1.5-0.7,1.8-0.8c0.6-0.2,0.9-0.3,2.5-1
		c1-0.5,3.1-1.8,3.8-2.4c0.3-0.3,0.5-0.5,0.5-0.5s0.6-0.5,1.2-1.2l1.2-1.2l1.4,1c0.8,0.6,1.9,1.4,2.5,1.8l1.2,0.8l-0.4,0.6
		c-0.9,1.5-3,6.2-3.4,7.5c-0.4,1.4-0.4,3.7-0.1,5c0.6,2.2,2,4,3.9,4.9c1,0.5,1.2,0.6,2.5,0.6c1.2,0.1,1.5,0,2.4-0.3
		c0.7-0.2,1.5-0.4,2.2-0.4c2.4-0.1,5-1.4,7.1-3.4c0.7-0.7,1.4-1.5,1.7-1.9c0.5-0.7,1.8-3.3,1.8-3.6c0-0.2,0.2-0.2,1.3,0.1
		c0.5,0.2,1.5,0.5,2.3,0.7c5.5,1.7,8.7,4.2,9.9,7.6c0.5,1.3,0.7,3.2,0.5,4.5c-1,5.9-5.3,9.9-11.9,11.1
		C84.9,102.5,80.8,102.5,78.5,102.2z M71.3,96.2c0.8-0.8,0.2-2.1-0.9-2.1c-0.7,0-1.2,0.5-1.2,1.2s0.5,1.2,1.2,1.2
		C70.8,96.5,71.1,96.4,71.3,96.2z M85.3,93.9c0.2-0.3,0.2-0.4,0-0.7c-0.4-0.4-0.9-0.4-1.2,0.1c-0.2,0.3-0.2,0.4,0,0.7
		C84.4,94.5,85,94.5,85.3,93.9z M77.5,90.1c0.3-0.2,0.2-0.8-0.2-0.8c-0.4-0.1-0.7,0.3-0.5,0.7C77,90.3,77.2,90.3,77.5,90.1z
		 M70.1,89.8c0-0.1-0.1-0.2-0.3-0.3c-0.3,0-0.3,0-0.3,0.3s0.1,0.3,0.3,0.3C69.9,90,70.1,89.9,70.1,89.8z M58.5,80.8
		c0.3-0.2,0.4-0.9,0.1-1.1c-0.4-0.3-1-0.1-1.2,0.3c-0.1,0.3-0.1,0.4,0.2,0.7C58,81,58.2,81,58.5,80.8z M39.9,75.2
		c0.1-0.5-0.4-0.7-0.7-0.4C39,75,39,75.2,39.1,75.4C39.3,75.8,39.8,75.7,39.9,75.2z M31.9,62.7c0.2-0.3,0.2-0.4,0-0.7
		c-0.1-0.2-0.4-0.4-0.6-0.4s-0.4,0.1-0.6,0.4c-0.2,0.3-0.2,0.4,0,0.7c0.1,0.2,0.4,0.4,0.6,0.4C31.5,63,31.7,62.9,31.9,62.7z
		 M30.1,53.4c0.1-0.1,0.3-0.3,0.4-0.5c0.7-1.4-1-2.6-2-1.5C27.6,52.4,28.7,53.9,30.1,53.4z M38.7,52.1c0.4-0.4,0.2-1.1-0.4-1.1
		s-0.8,0.6-0.4,1.1c0.1,0.1,0.3,0.2,0.4,0.2S38.6,52.2,38.7,52.1z M32.2,45c0.1-0.2,0.1-0.4,0-0.6c-0.2-0.4-0.8-0.4-1,0
		S31,44.8,31.3,45C31.6,45.4,32,45.3,32.2,45z"/>
	<path class="st5" d="M72.7,84c-1.2-0.3-1.7-0.6-2.9-1.4c-1.6-1.1-3-3.3-3.6-5.2c-0.1-0.5-0.3-1.1-0.4-1.2c-0.2-0.3-0.2-0.3,0.5-2.5
		c0.4-1.3,1.4-3.3,2.5-4.7c0.5-0.6,1.8-2.3,3-3.6c1.9-2.2,2.9-3.5,4.9-6.5c2.2-3.3,1-7-2.6-8.3c-0.9-0.3-2.6-0.3-3.6,0.1
		c-1.3,0.5-2.5,1.7-3.3,3.3c-0.8,1.7-1,2.1-3.5,6.4c-0.5,1-2.1,3-3.3,4.5c-0.9,1.1-3.3,3-4.9,4c-2.6,1.5-4,1.9-6.3,1.4
		c-3.6-0.7-6.2-3.1-7.3-6.8c-0.4-1.2-0.5-3.6-0.3-4.6c0.5-2.3,3.9-5.9,7.8-8.2c1.2-0.7,1.6-0.9,4.6-2.3c2-1,3.6-2,5.1-3.4
		c0.6-0.6,1.4-1.3,1.8-1.5c1.3-0.9,1.9-2.1,1.9-3.5c0-1.2-0.3-2.1-1-2.9c-1-1.1-2.7-1.6-4.1-1.1c-0.6,0.2-3.3,1.3-3.9,1.6
		c-0.9,0.5-2.1,0.2-2.4-0.6c-0.3-0.7-0.2-1.5,0.1-1.9c0.2-0.2,0.8-0.6,1.4-0.9c0.6-0.3,1.2-0.6,1.3-0.7c0.1-0.1,0.8-0.3,1.6-0.5
		c1.2-0.3,1.6-0.4,2.8-0.3c1.2,0,1.5,0.1,2.4,0.6c0.6,0.3,1.4,0.8,1.9,1.3c1.8,1.7,2.6,4,2.3,6.6c-0.2,1.4-0.5,2.3-1.3,3.6
		c-0.6,0.9-3.2,3.9-3.4,3.9c-0.1,0-0.5,0.3-1.1,0.7c-0.8,0.6-2,1.3-3.2,2c-0.1,0.1-1.3,0.7-2.7,1.3c-3.2,1.6-4.5,2.4-6.2,4.2
		c-2.2,2.2-3,3.8-3,5.9c0,0.8,0.1,1.2,0.4,1.8c0.8,1.5,2.4,2.6,4.2,2.8c2.3,0.2,5.4-1.3,8.2-4c2-2,3.1-3.4,4.6-6.2
		c1.6-3,2.7-4.5,4.5-6.3c1.9-1.9,3.1-2.6,5-2.9c4.2-0.7,8.1,2.3,9.1,7c0.2,1.2,0.2,3.3-0.1,3.8c-0.1,0.1-0.2,0.6-0.4,1.1
		c-0.4,1.3-1.5,3.4-2.6,4.9c-0.5,0.7-1,1.4-1.1,1.5s-0.4,0.4-0.6,0.6c-0.3,0.2-0.5,0.5-0.5,0.5s-0.3,0.4-0.6,0.6
		c-0.2,0-0.4,0.3-0.4,0.3s-0.3,0.4-0.7,0.9c-1.8,1.9-3.2,4.3-3.7,6.2c-0.3,1-0.2,2.6,0.1,3.6c0.2,0.8,1,1.8,1.7,2.3
		c0.6,0.4,0.7,0.4,2,0.4c1.2,0,1.5,0,2.2-0.4c1.2-0.6,2.1-1.3,2.9-2.3c1.3-1.7,1.9-3.3,3.1-8.2c1-4.2,1.9-6.5,3.3-8.6
		c0.2-0.3,0.6-0.9,0.9-1.3c1-1.5,3.2-2.9,5-3.3c3.4-0.7,7.3,1.4,8.9,4.5c0.7,1.3,0.8,2,0.9,3.7c0.1,1,0,1.4-0.2,2
		c-0.4,1.2-1.6,1.7-2.6,1.1C97.3,68.6,97,68,97,66.7c0-2.6-0.5-4.2-1.7-5.3c-0.9-0.8-1.8-1.1-3.2-1.1c-3,0.2-5.4,3-5.9,6.8
		c-0.1,0.5-0.2,1.1-0.3,1.4c-0.1,0.3-0.5,1.9-0.9,3.4c-1.1,4.4-2,6.9-3.4,8.7c-0.3,0.4-0.6,0.9-0.8,1.2c-0.4,0.6-1.6,1.4-2.9,1.8
		C76.4,84.3,74.2,84.3,72.7,84z"/>
	<path class="st4" d="M72.2,80c-1.6-1-1.5-5.1,0.2-7.2l0.3-0.3l2.1,1c1.1,0.6,2.5,1.2,3,1.5c0.9,0.4,1,0.4,0.9,0.8
		c-0.3,1.3-2.1,3.3-3.5,4C74.2,80.3,72.8,80.3,72.2,80z"/>
	<path class="st4" d="M48.6,65.5c-1.1-0.3-2.2-1.3-2.5-2.3c-0.4-1.5,0.7-3.8,2.6-5.7c0.8-0.8,2.4-2,2.7-2c0.1,0,0.4,0.4,0.8,0.8
		c0.4,0.4,1.6,1.7,2.7,2.9l2.1,2.1l-0.8,0.8C53.5,64.6,50.5,65.9,48.6,65.5z"/>
	<path class="st4" d="M109.2,59.9l-0.4-0.5l-2.7,0.1c-1.6,0.1-3.6,0-4.6-0.1l-1.9-0.2l-0.9-0.7c-1.1-0.9-3-1.8-4.3-2.1
		c-1.2-0.3-3.5-0.2-4.5,0.2c-0.6,0.2-0.8,0.2-1.2,0.1c-1-0.3-4.5-1.8-5.7-2.5c-1.1-0.6-1.1-0.6-1.4-1.5c-0.9-2.6-3.3-5-5.8-5.9
		c-0.4-0.2-1-0.4-1.1-0.5c-0.2-0.1-0.9-0.2-1.8-0.2h-1.5L69,44l-2.1-2.1V40c0-1.2-0.1-2-0.2-2.1s-0.3-0.6-0.5-1.1
		c-0.5-1.4-1.8-3.2-2.8-4c-1.1-0.8-2.3-1.4-3.5-1.6L59,31l-1.1-2.3c-1.2-2.5-1.1-2.3-2.1-2.1c-0.5,0.1-0.3-0.3,0.3-0.7
		c0.9-0.6,1.6-0.8,2.7-0.8c2,0,3.6,1.3,5,4.2c2,4.1,2.3,4.7,3.3,6.2c4.2,6.4,10.6,11.8,18.7,15.9c2.9,1.5,5.6,2.4,8.4,3
		c2.5,0.5,4.1,0.7,7.3,0.7c3.1,0,3.9,0.1,5.4,0.8c0.8,0.4,1.3,0.7,2.2,1.7c1,1,1.8,2.2,1.8,2.7c0,0.1-0.3,0.2-0.6,0.2
		C109.6,60.4,109.6,60.4,109.2,59.9z"/>
</g>
<g>
	<path class="st6" d="M170,97.7c-1.2,0.2-2.5,0.3-3.9,0.3c-2.8,0-4.7-0.5-5.9-1.5c-1.1-1-1.7-2.7-1.7-5.1V30.8
		c0.6-0.1,1.5-0.3,2.8-0.5s2.5-0.3,3.8-0.3c2.6,0,4.6,0.5,5.8,1.4c1.2,1,1.9,2.7,1.9,5.3v21.6h27.4V30.8c0.6-0.1,1.5-0.3,2.8-0.5
		s2.5-0.3,3.8-0.3c2.6,0,4.6,0.5,5.8,1.5s1.9,2.8,1.9,5.3v60.5c-0.7,0.1-1.6,0.3-2.8,0.5s-2.5,0.3-3.9,0.3c-2.8,0-4.7-0.5-5.9-1.5
		c-1.1-1-1.7-2.7-1.7-5.1v-22h-27.4v27.6C172.1,97.3,171.2,97.5,170,97.7z"/>
	<path class="st6" d="M294.2,63.9c0,5.7-0.8,10.7-2.5,15.1s-4,8.1-7,11s-6.5,5.2-10.6,6.7s-8.5,2.2-13.3,2.2
		c-4.7,0-9.2-0.8-13.3-2.2c-4.1-1.5-7.6-3.7-10.6-6.7s-5.3-6.6-7-11s-2.5-9.4-2.5-15.1s0.9-10.7,2.6-15.1c1.7-4.3,4.1-8,7.1-11
		s6.5-5.2,10.6-6.7s8.4-2.2,13.1-2.2c4.7,0,9,0.7,13.1,2.2s7.6,3.7,10.6,6.7s5.3,6.6,7.1,11C293.3,53.2,294.2,58.2,294.2,63.9z
		 M279.6,63.9c0-7.6-1.7-13.4-5.1-17.4s-7.9-6-13.6-6c-5.6,0-10.1,2-13.5,5.9s-5.1,9.7-5.1,17.4s1.7,13.5,5,17.4
		c3.4,3.9,7.9,5.9,13.6,5.9s10.2-2,13.6-5.9C277.9,77.4,279.6,71.6,279.6,63.9z"/>
	<path class="st6" d="M353.1,33.1c0.3,1,0.5,2.1,0.5,3.2c0,2-0.5,3.5-1.4,4.5s-2.2,1.5-3.8,1.5h-15.1v54.8c-0.6,0.1-1.5,0.3-2.7,0.5
		s-2.5,0.3-3.8,0.3c-2.8,0-4.7-0.5-5.9-1.5c-1.2-1-1.8-2.7-1.8-5.1v-49h-18.4c-0.4-0.7-0.7-1.5-1-2.4s-0.5-2-0.5-3.2
		c0-2,0.5-3.6,1.4-4.5c0.9-1,2.2-1.5,3.8-1.5H352C352.4,31.3,352.7,32.1,353.1,33.1z"/>
	<path class="st6" d="M423.3,63.6c0,5.9-0.9,11.1-2.6,15.5s-4.1,8.1-7.3,11c-3.1,2.9-6.9,5.1-11.3,6.5c-4.4,1.5-9.3,2.2-14.7,2.2
		c-1.2,0-2.6,0-4.1-0.1c-1.5,0-3-0.1-4.5-0.3c-1.6-0.2-3.1-0.4-4.7-0.7c-1.6-0.3-3.1-0.7-4.4-1.2c-3.5-1.3-5.3-3.5-5.3-6.6V36.2
		c0-1.3,0.4-2.3,1.1-3.1c0.7-0.7,1.8-1.3,3.1-1.8c2.7-0.9,5.6-1.6,8.8-1.8c3.2-0.3,6.2-0.4,9-0.4c5.5,0,10.5,0.7,15.1,2.1
		c4.6,1.4,8.5,3.6,11.7,6.4c3.2,2.8,5.7,6.4,7.5,10.7C422.4,52.8,423.3,57.8,423.3,63.6z M408.8,63.7c0-3.9-0.5-7.4-1.6-10.2
		c-1.1-2.9-2.6-5.3-4.5-7.1c-1.9-1.9-4.2-3.2-6.9-4.2c-2.7-0.9-5.6-1.4-8.7-1.4c-1.7,0-3.2,0.1-4.5,0.2c-1.4,0.1-2.6,0.2-3.9,0.4v45
		c1.2,0.3,2.6,0.5,4.2,0.6s3.1,0.2,4.7,0.2c6.8,0,12-2,15.8-5.9C406.9,77.3,408.8,71.5,408.8,63.7z"/>
	<path class="st6" d="M499.6,63.9c0,5.7-0.8,10.7-2.5,15.1s-4,8.1-7,11s-6.5,5.2-10.6,6.7s-8.5,2.2-13.3,2.2
		c-4.7,0-9.2-0.8-13.3-2.2c-4.1-1.5-7.6-3.7-10.6-6.7s-5.3-6.6-7-11s-2.5-9.4-2.5-15.1s0.9-10.7,2.6-15.1c1.7-4.3,4.1-8,7.1-11
		s6.5-5.2,10.6-6.7s8.4-2.2,13.1-2.2s9,0.7,13.1,2.2s7.6,3.7,10.6,6.7s5.3,6.6,7.1,11C498.7,53.2,499.6,58.2,499.6,63.9z M485,63.9
		c0-7.6-1.7-13.4-5.1-17.4s-7.9-6-13.6-6c-5.6,0-10.1,2-13.5,5.9s-5.1,9.7-5.1,17.4s1.7,13.5,5,17.4c3.4,3.9,7.9,5.9,13.6,5.9
		s10.2-2,13.6-5.9C483.3,77.4,485,71.6,485,63.9z"/>
	<path class="st6" d="M569.4,88c0,1.8-0.4,3.2-1.2,4.2s-2,1.9-3.7,2.8c-0.9,0.6-2.1,1.1-3.6,1.6c-1.4,0.5-3,0.9-4.7,1.2
		c-1.7,0.3-3.5,0.6-5.3,0.8c-1.8,0.2-3.7,0.3-5.5,0.3c-5.2,0-10-0.7-14.4-2c-4.4-1.4-8.3-3.5-11.5-6.3c-3.3-2.8-5.8-6.5-7.6-10.8
		c-1.8-4.4-2.7-9.6-2.7-15.7c0-5.8,0.9-10.9,2.8-15.3s4.4-8.1,7.7-11c3.2-2.9,7-5.1,11.3-6.6c4.3-1.5,8.9-2.2,13.9-2.2
		c3.3,0,6.3,0.3,8.9,0.8c2.7,0.5,5,1.3,6.9,2.2c1.9,0.9,3.4,2,4.4,3.3s1.5,2.6,1.5,4c0,1.5-0.4,2.7-1.2,3.8s-1.7,1.9-2.7,2.5
		c-1.9-1.2-4.2-2.4-6.9-3.5s-6-1.6-10-1.6c-3.2,0-6.2,0.5-8.9,1.6s-5,2.6-7,4.5c-1.9,2-3.5,4.4-4.5,7.3c-1.1,2.9-1.6,6.2-1.6,10
		c0,4,0.5,7.5,1.6,10.4s2.6,5.4,4.5,7.3s4.2,3.4,6.9,4.3s5.6,1.4,8.7,1.4c2.1,0,4.1-0.2,5.8-0.5c1.8-0.4,3.1-0.8,4.1-1.3V70.3h-14
		c-0.4-0.6-0.7-1.4-1-2.3s-0.4-2-0.4-3.2c0-1.9,0.5-3.3,1.4-4.3c0.9-0.9,2.1-1.4,3.6-1.4h18.4c1.8,0,3.3,0.5,4.3,1.5
		c1.1,1,1.6,2.4,1.6,4.3V88H569.4z"/>
</g>
</svg>
