<svg id="Layer_1" data-name="Layer 1" xmlns="http://www.w3.org/2000/svg" viewBox="0 0 558.61 102.44"><defs><style>.cls-1{fill:#212526;}.cls-2{fill:#df4456;}.cls-3{fill:#cc364b;}.cls-4{fill:#d39256;}.cls-5{fill:#ffc74f;}.cls-6{fill:#f24962;}</style></defs><title>hotdog-logo</title><g id="layer101"><path class="cls-1" d="M91.5,115.2A92,92,0,0,1,57.4,107a96,96,0,0,1-22-13.7,108.72,108.72,0,0,1-9.6-9.6,64.58,64.58,0,0,1-14-28.5c-1-5-1.3-8.6-.7-11.5a19.44,19.44,0,0,1,9-13.2l1.1-.7v-.7a18.41,18.41,0,0,1,1.4-6.3A17.09,17.09,0,0,1,35.5,13a21.51,21.51,0,0,1,6.7.1A17.39,17.39,0,0,1,54.6,23.3c.2.6.4,1,.4,1.1s.5-.2,1.1-.5a6.2,6.2,0,0,1,7,.8c1.3,1.1,2.1,2.3,3.7,5.7,3.4,7.6,10.3,14.2,19.8,19A28.76,28.76,0,0,0,101.8,53a33.25,33.25,0,0,1,4.2.2,20.52,20.52,0,0,1,2,.8,10.11,10.11,0,0,1,4.9,5.1l.3.8h1.1c5.9,0,10.9,2.1,13.7,5.9,5,6.6,3.6,16.2-3.4,23.4l-.9.9.1,1a23.38,23.38,0,0,1-.1,5.9,17,17,0,0,1-5.1,10,23.44,23.44,0,0,1-9.9,5.8A47.8,47.8,0,0,1,91.5,115.2Z" transform="translate(-10.79 -12.79)"/></g><g id="layer102"><path class="cls-2" d="M101.4,94.7a.68.68,0,0,1-.6-.4,23,23,0,0,1-.1-3.3,13,13,0,0,0-.4-4.3A10.79,10.79,0,0,0,97,81.5c-2.1-2-4.3-3.2-8.7-4.6a26.62,26.62,0,0,1-2.6-.9c-.1-.1,0-.5.1-1.1s.4-1.8.7-2.8c.8-3.6,1.8-6.1,3.1-7.7s2.5-2,3.9-1.4,2,1.6,2.1,3.9c.1,1.5.1,1.7.5,2.3a2.82,2.82,0,0,0,2.5,1.5,3.09,3.09,0,0,0,3.3-2.1,12.38,12.38,0,0,0-.3-5.7c-.1-.2.3-.2,3.7-.3a21.7,21.7,0,0,0,4.7-.3,31.43,31.43,0,0,1,8.1.1c5.5,1.2,8.9,4.3,10.2,9.1a19.39,19.39,0,0,1,.1,6.8,18.56,18.56,0,0,1-4,8.2c-.4.4-.6.8-.7.8a25.75,25.75,0,0,1-3.9,3.3,26.32,26.32,0,0,1-11.1,4A45.15,45.15,0,0,1,101.4,94.7ZM124.7,77a6,6,0,0,0,1.5-3.1c.2-2.4-1.7-4.1-4.7-4.2-1,0-1.2,0-1.3.2s.3.4,1.4,1a4.92,4.92,0,0,1,2.5,1.9,5.48,5.48,0,0,1-.1,3.1C123.6,77.6,123.8,77.9,124.7,77Z" transform="translate(-10.79 -12.79)"/><path class="cls-2" d="M76.5,72.3c-1.5-.7-2.7-1.4-2.7-1.4a23.69,23.69,0,0,1,1.6-2c4-4.5,5.7-7.5,6.3-10.8a1.17,1.17,0,0,1,.2-.7c0-.1.4.1.8.3a12.07,12.07,0,0,0,1.9.8l1.1.5-.6.7a24,24,0,0,0-2.8,4.4,34,34,0,0,0-2.4,7.1,12.24,12.24,0,0,1-.7,2.5A12.53,12.53,0,0,0,76.5,72.3Z" transform="translate(-10.79 -12.79)"/><path class="cls-2" d="M66.8,66.7a21.19,21.19,0,0,1-3.6-2.8c0-.1.1-.2.1-.3a31.75,31.75,0,0,0,2.8-4.4c2.1-3.9,3.9-6,5.8-6.6.9-.3,1.6,0,2.4.9a4.13,4.13,0,0,1,1,3.2,6,6,0,0,1-.8,2.4,23.19,23.19,0,0,1-3.7,5.1c-.9,1-1.8,2.1-2.1,2.5s-.6.7-.7.7S67.4,67.1,66.8,66.7Z" transform="translate(-10.79 -12.79)"/><path class="cls-2" d="M56.1,57.8a22.48,22.48,0,0,1-3-3.4l2.6-1.3a28,28,0,0,0,5.6-3.4,19.16,19.16,0,0,0,3.4-3.6l.7-.9,1.1,1.1c.6.6,1.1,1.2,1.1,1.2a4.43,4.43,0,0,0-.6.5c-2.2,1.4-4.1,3.7-6.3,7.7a34.85,34.85,0,0,1-2.6,4.1C58,59.7,57.1,58.9,56.1,57.8Z" transform="translate(-10.79 -12.79)"/><path class="cls-2" d="M48.2,48.3A80.1,80.1,0,0,1,42.1,38a28.28,28.28,0,0,0-2-3.5,14.74,14.74,0,0,0-9.2-6,17.63,17.63,0,0,0-7.3.4l-.6.2.1-1.1a14.06,14.06,0,0,1,4.2-8.8,11.86,11.86,0,0,1,3.9-2.7C38.2,13,46.8,15,51,21.2a22.07,22.07,0,0,1,2.2,4.6c.4,1.1,1.2,2.9,1.6,3.8s.8,1.8.8,1.8a4.42,4.42,0,0,0-.8.3,14.14,14.14,0,0,0-3.9,1.9,3.23,3.23,0,0,0,.8,5.4q1.2.6,3.9-.6c2.4-1.1,3.7-1.1,4.5.2a3.65,3.65,0,0,1,0,2.9,17.08,17.08,0,0,1-4,4.1c-1,.7-6.8,3.6-7,3.6S48.5,48.8,48.2,48.3ZM31.1,22.7c.1-.1.3-.5.6-1,1.4-3.1,2.3-3.6,5.4-2.7.8.2,1.2.3,1.3.2s-.2-.8-1.1-1.4c-2.9-1.9-5.6-.9-6.5,2.4a9.85,9.85,0,0,0-.2,1.7C30.6,22.8,30.8,23,31.1,22.7Z" transform="translate(-10.79 -12.79)"/></g><g id="layer103"><path class="cls-3" d="M71.6,85.3a7.93,7.93,0,0,1-4.8-3.8,9.55,9.55,0,0,1-1-5.1,10.22,10.22,0,0,1,1.4-5,23.29,23.29,0,0,1,2.6-3.8c.2-.2.4-.5.6-.7a26.24,26.24,0,0,1,2.1-2.3,22.13,22.13,0,0,0,3.7-5.5,5.84,5.84,0,0,0-.8-6.4,3.6,3.6,0,0,0-4.8-.9c-1.9.9-3.6,3-5.7,6.8a25.06,25.06,0,0,1-5.2,7c-3.3,3.3-6.4,4.9-9.8,5.1a8.2,8.2,0,0,1-6.7-2.6,7.81,7.81,0,0,1-2.3-7.5,14.58,14.58,0,0,1,5.5-8A42.48,42.48,0,0,1,52.5,49a41.68,41.68,0,0,0,4.2-2.3,18,18,0,0,0,4.2-4,4.46,4.46,0,0,0-.3-5.4c-1.4-1.4-3.1-1.3-6.3.2-1.2.6-1.5.6-2.2.3a1.77,1.77,0,0,1-.7-2.6c.4-.6,2.6-1.7,4.5-2.2a8.61,8.61,0,0,1,2.8-.3,3.75,3.75,0,0,1,2.4.6,8.13,8.13,0,0,1,4,4.4,9.16,9.16,0,0,1-.6,6.5A18,18,0,0,1,58.9,50a38,38,0,0,1-4.4,2.4c-3.9,2-5.5,3-7.1,4.6-2.5,2.5-3.4,5-2.6,7.1a5.66,5.66,0,0,0,4.3,3.1c2.7.2,6.6-2,9.5-5.5a33.28,33.28,0,0,0,3.3-5,24.61,24.61,0,0,1,3.8-5.5,10.66,10.66,0,0,1,3.5-2.7c4.7-2.4,10.1.6,11.2,6.2.6,3.2-.6,7.1-3.6,10.7-.6.7-3.5,4.1-3.7,4.2a21.32,21.32,0,0,0-2.5,3.7c-2,3.8-1,7.7,2,8.5,1.8.5,4.7-1,6.1-3,1.1-1.7,1.7-3.2,2.7-7.5a30.91,30.91,0,0,1,2.4-7c2.3-4.6,5.4-6.8,9-6.5a8.56,8.56,0,0,1,6.9,4.6,7.91,7.91,0,0,1,.9,4.2c0,1.8-.1,2.2-1,2.7a1.5,1.5,0,0,1-1.8,0c-.7-.4-.9-.8-.9-2.5a5,5,0,0,0-1.3-3.7,4.63,4.63,0,0,0-3.5-1.6,3.44,3.44,0,0,0-2.6,1c-1.3,1-2.7,3.5-3.5,5.8-.2.6-.7,2.5-1.1,4.1-1.1,4.3-1.8,6.3-3.2,8.3C79.5,84.2,75.1,86.1,71.6,85.3Z" transform="translate(-10.79 -12.79)"/></g><g id="layer104"><path class="cls-4" d="M89.6,113.1c-16.6-.9-35.3-7.8-49.3-18.3-14.4-10.9-23.5-24.4-26.8-40-1.3-6.2-1.3-9.5-.1-13.3A16.84,16.84,0,0,1,25.5,30.3a16.57,16.57,0,0,1,5.9.2,12.57,12.57,0,0,1,5.2,2.9,17.11,17.11,0,0,1,3.7,5.4,79.06,79.06,0,0,0,6.2,10.4,10.27,10.27,0,0,1,.7,1l-1.3,1.1c-4.8,3.6-7.3,8.7-6.3,13.1A8.92,8.92,0,0,0,42.2,69a20.41,20.41,0,0,0,2,1.7c4.7,2.8,10.6,1.4,16.1-3.7l1.6-1.5,1.4,1c.8.6,1.9,1.4,2.5,1.8l1.2.8-.3.5a12.83,12.83,0,0,0-1.4,2.9C63.2,78,65.1,83.9,69.6,86a8.53,8.53,0,0,0,3.9.8,11.61,11.61,0,0,0,8-3.6,21.52,21.52,0,0,0,3-4.4c.2-.5.4-.8.5-.8a4.55,4.55,0,0,1,1.1.3,21.9,21.9,0,0,0,2.3.7c5.9,1.9,9.2,4.6,10.2,8.5a19.43,19.43,0,0,1,.3,3.8,17.1,17.1,0,0,0,.3,4c.8,3.6,3.3,5.7,6.8,5.7.8,0,1.1-.3,1.1-1s-.4-.9-1-.9a7.05,7.05,0,0,1-2.5-.6,6.56,6.56,0,0,1-1.7-1.6c-.1-.2,0-.3,2.6-.3A28.42,28.42,0,0,0,114.9,95a31,31,0,0,0,5.5-2.6,9.32,9.32,0,0,1,1.3-.7s.1,1,.1,2.1c0,5-1.4,8.7-4.6,11.9-4.3,4.4-11.4,6.8-20.8,7.4A38.59,38.59,0,0,1,89.6,113.1Z" transform="translate(-10.79 -12.79)"/><path class="cls-4" d="M72.7,84a7.74,7.74,0,0,1-2.9-1.4,10.68,10.68,0,0,1-3.6-5.2,4,4,0,0,0-.4-1.2c-.2-.3-.2-.3.5-2.5A16.59,16.59,0,0,1,68.8,69c.5-.6,1.8-2.3,3-3.6a54.83,54.83,0,0,0,4.9-6.5c2.2-3.3,1-7-2.6-8.3a6.33,6.33,0,0,0-3.6.1A6.6,6.6,0,0,0,67.2,54a65.37,65.37,0,0,1-3.5,6.4,38.2,38.2,0,0,1-3.3,4.5,25.66,25.66,0,0,1-4.9,4c-2.6,1.5-4,1.9-6.3,1.4a9.24,9.24,0,0,1-7.3-6.8,12.19,12.19,0,0,1-.3-4.6c.5-2.3,3.9-5.9,7.8-8.2A45.45,45.45,0,0,1,54,48.4,20.63,20.63,0,0,0,59.1,45a10.07,10.07,0,0,1,1.8-1.5,4.38,4.38,0,0,0,.9-6.4A4,4,0,0,0,57.7,36c-.6.2-3.3,1.3-3.9,1.6a1.71,1.71,0,0,1-2.4-.6,2.06,2.06,0,0,1,.1-1.9,11.49,11.49,0,0,1,1-.8c.4-.2.8-.4.8-.5a12.45,12.45,0,0,1,3.1-1.1,9.34,9.34,0,0,1,2.4-.2,7,7,0,0,1,4.3,1.9A7.57,7.57,0,0,1,65.4,41a7.45,7.45,0,0,1-1.3,3.6,31.11,31.11,0,0,1-3.4,3.9,7.13,7.13,0,0,0-1.1.7,37.11,37.11,0,0,1-3.2,2,23.22,23.22,0,0,1-2.7,1.3c-3.2,1.6-4.5,2.4-6.2,4.2-2.2,2.2-3,3.8-3,5.9a3.42,3.42,0,0,0,.4,1.8,5.25,5.25,0,0,0,6,2.7c3.6-.8,7.9-4.7,10.4-9.2,2.2-4,3.3-5.6,5.3-7.5a8.57,8.57,0,0,1,4.7-2.6c4.2-.7,8.1,2.3,9.1,7a9.74,9.74,0,0,1-.2,4.5,22.46,22.46,0,0,1-2.8,5.3c-.5.7-1,1.4-1.1,1.5l-.6.6a2,2,0,0,0-.5.5c0,.1-.3.4-.6.6s-.6.4-.6.5a5.35,5.35,0,0,1-.7.9,15.7,15.7,0,0,0-3.7,6.2,7.32,7.32,0,0,0,.1,3.6,4.81,4.81,0,0,0,1.7,2.3c.6.4.7.4,2,.4a3.48,3.48,0,0,0,2.2-.4A8.23,8.23,0,0,0,78.5,79c1.3-1.7,1.9-3.3,3.1-8.2,1-4.2,1.9-6.5,3.3-8.6.2-.3.6-.9.9-1.3a9.06,9.06,0,0,1,5-3.3,8.68,8.68,0,0,1,8.9,4.5,7.24,7.24,0,0,1,.9,3.7,4,4,0,0,1-.2,2,1.76,1.76,0,0,1-2.6,1.1c-.5-.3-.8-.9-.8-2.3,0-2.6-.5-4.2-1.7-5.3a4.32,4.32,0,0,0-3.2-1.1c-3,.2-5.4,3-5.9,6.8-.1.5-.2,1.1-.3,1.4s-.5,1.9-.9,3.4c-1.1,4.4-2,6.9-3.4,8.7-.3.4-.6.9-.8,1.2a6,6,0,0,1-2.9,1.8A8.51,8.51,0,0,1,72.7,84Z" transform="translate(-10.79 -12.79)"/><path class="cls-4" d="M72.5,80.2a3.54,3.54,0,0,1-1.3-1.6,5,5,0,0,1-.1-1.9,4.5,4.5,0,0,1,.6-2.4,7.52,7.52,0,0,1,.8-1.4l.3-.3,2.1,1c1.1.6,2.5,1.2,3,1.5,1.1.5,1.1.5.3,2.1A6.31,6.31,0,0,1,75.4,80,4.29,4.29,0,0,1,72.5,80.2Z" transform="translate(-10.79 -12.79)"/><path class="cls-4" d="M47.9,65.3a4,4,0,0,1-1.8-1.6,4.46,4.46,0,0,1,0-2.8,10.22,10.22,0,0,1,2.2-3.2,15,15,0,0,1,2.9-2.3c.1,0,.4.4.8.8s1.6,1.7,2.7,2.9l2.1,2.1-1.2,1.2C52.8,65.1,49.9,66.2,47.9,65.3Z" transform="translate(-10.79 -12.79)"/><path class="cls-4" d="M101,60.6c-.4-.1-.7-.3-1.3-1a10.28,10.28,0,0,0-7.4-3.4,8.2,8.2,0,0,0-3.9.9l-.9.4L85.9,57c-.8-.3-2-.9-2.7-1.2L82,55.2l-.2-1c-1-4-3.4-6.7-6.9-7.8a5.93,5.93,0,0,0-2.7-.3,7.66,7.66,0,0,0-2,.3l-.5.2L67.9,45l-1.6-1.6.2-.7a8.31,8.31,0,0,0,.2-2.6,6.63,6.63,0,0,0-.4-3.1,8.72,8.72,0,0,0-7.6-5.9L57.5,31l-.9-2c-1.3-2.6-1.3-2.6-.5-3.1a4.3,4.3,0,0,1,2.7-.8c2,0,3.6,1.3,5,4.2a44.37,44.37,0,0,0,3.3,6.2c4.2,6.4,10.6,11.8,18.7,15.9a32.7,32.7,0,0,0,8.4,3,31.72,31.72,0,0,0,7.3.7c3.1,0,3.9.1,5.4.8a6.22,6.22,0,0,1,2.2,1.7,6.12,6.12,0,0,1,1.8,2.7c0,.1-.4.2-2.4.5C107.2,60.8,101.9,60.8,101,60.6Z" transform="translate(-10.79 -12.79)"/></g><g id="layer105"><path class="cls-5" d="M78.5,102.2A59.88,59.88,0,0,1,64.8,98,85.53,85.53,0,0,1,37.1,78.1C27.1,67.3,20.7,55.5,19.2,45a32.35,32.35,0,0,1,.2-8.3c.2-.7.3-1.4.4-1.6s0-.3-.1-.3A17.14,17.14,0,0,0,16,37.5l-1.1,1,.3-.6A17.66,17.66,0,0,1,23,31.2a11.63,11.63,0,0,1,5.6-.9,11.7,11.7,0,0,1,8,3.2,17.11,17.11,0,0,1,3.7,5.4,79.06,79.06,0,0,0,6.2,10.4c.5.7.7,1,.5,1.2a11.46,11.46,0,0,1-1.2.9,17.41,17.41,0,0,0-5.5,6.5c-.3.6-.6,1.4-.8,1.7s-.5,1-.8,1.6a8.77,8.77,0,0,0,5.5,12.4,11.87,11.87,0,0,0,4.6,0,6.9,6.9,0,0,0,2-.9c.7-.3,1.5-.7,1.8-.8a23.54,23.54,0,0,0,2.5-1,27.53,27.53,0,0,0,3.8-2.4l.5-.5a11.35,11.35,0,0,0,1.2-1.2l1.2-1.2,1.4,1c.8.6,1.9,1.4,2.5,1.8l1.2.8-.4.6a60.62,60.62,0,0,0-3.4,7.5,12.07,12.07,0,0,0-.1,5,7.5,7.5,0,0,0,3.9,4.9,4.06,4.06,0,0,0,2.5.6,4.55,4.55,0,0,0,2.4-.3,8.51,8.51,0,0,1,2.2-.4,11.52,11.52,0,0,0,7.1-3.4,21.66,21.66,0,0,0,1.7-1.9,19.94,19.94,0,0,0,1.8-3.6c0-.2.2-.2,1.3.1a21.9,21.9,0,0,0,2.3.7c5.5,1.7,8.7,4.2,9.9,7.6a10,10,0,0,1,.5,4.5c-1,5.9-5.3,9.9-11.9,11.1A37.39,37.39,0,0,1,78.5,102.2Zm-7.2-6a1.23,1.23,0,0,0-.9-2.1,1.2,1.2,0,0,0,0,2.4A1.22,1.22,0,0,0,71.3,96.2Zm14-2.3a.48.48,0,0,0,0-.7.7.7,0,0,0-1.2.1.48.48,0,0,0,0,.7A.65.65,0,0,0,85.3,93.9Zm-7.8-3.8c.3-.2.2-.8-.2-.8a.46.46,0,0,0-.5.7C77,90.3,77.2,90.3,77.5,90.1Zm-7.4-.3q0-.15-.3-.3c-.3,0-.3,0-.3.3s.1.3.3.3S70.1,89.9,70.1,89.8Zm-11.6-9c.3-.2.4-.9.1-1.1a.84.84,0,0,0-1.2.3c-.1.3-.1.4.2.7S58.2,81,58.5,80.8ZM39.9,75.2a.41.41,0,0,0-.7-.4.47.47,0,0,0-.1.6C39.3,75.8,39.8,75.7,39.9,75.2Zm-8-12.5a.48.48,0,0,0,0-.7.82.82,0,0,0-.6-.4.72.72,0,0,0-.6.4.48.48,0,0,0,0,.7.82.82,0,0,0,.6.4A2.09,2.09,0,0,0,31.9,62.7Zm-1.8-9.3a2.18,2.18,0,0,0,.4-.5,1.26,1.26,0,0,0-2-1.5A1.31,1.31,0,0,0,30.1,53.4Zm8.6-1.3a.63.63,0,0,0-.4-1.1c-.6,0-.8.6-.4,1.1a.5.5,0,0,0,.8,0ZM32.2,45a.64.64,0,0,0,0-.6.57.57,0,0,0-1,0c-.2.4-.2.4.1.6A.52.52,0,0,0,32.2,45Z" transform="translate(-10.79 -12.79)"/><path class="cls-6" d="M72.7,84a7.74,7.74,0,0,1-2.9-1.4,10.68,10.68,0,0,1-3.6-5.2,4,4,0,0,0-.4-1.2c-.2-.3-.2-.3.5-2.5A16.59,16.59,0,0,1,68.8,69c.5-.6,1.8-2.3,3-3.6a54.83,54.83,0,0,0,4.9-6.5c2.2-3.3,1-7-2.6-8.3a6.33,6.33,0,0,0-3.6.1A6.6,6.6,0,0,0,67.2,54a65.37,65.37,0,0,1-3.5,6.4,38.2,38.2,0,0,1-3.3,4.5,25.66,25.66,0,0,1-4.9,4c-2.6,1.5-4,1.9-6.3,1.4a9.24,9.24,0,0,1-7.3-6.8,12.19,12.19,0,0,1-.3-4.6c.5-2.3,3.9-5.9,7.8-8.2A45.45,45.45,0,0,1,54,48.4,20.63,20.63,0,0,0,59.1,45a10.07,10.07,0,0,1,1.8-1.5,4.38,4.38,0,0,0,.9-6.4A4,4,0,0,0,57.7,36c-.6.2-3.3,1.3-3.9,1.6a1.71,1.71,0,0,1-2.4-.6,2.06,2.06,0,0,1,.1-1.9,6.8,6.8,0,0,1,1.4-.9,11.05,11.05,0,0,0,1.3-.7,7.48,7.48,0,0,1,1.6-.5,6.72,6.72,0,0,1,2.8-.3,3.75,3.75,0,0,1,2.4.6,8,8,0,0,1,1.9,1.3,7.57,7.57,0,0,1,2.3,6.6,8.27,8.27,0,0,1-1.3,3.6,30.26,30.26,0,0,1-3.4,3.9,7.13,7.13,0,0,0-1.1.7,37.11,37.11,0,0,1-3.2,2,23.22,23.22,0,0,1-2.7,1.3c-3.2,1.6-4.5,2.4-6.2,4.2-2.2,2.2-3,3.8-3,5.9a3.42,3.42,0,0,0,.4,1.8,5.5,5.5,0,0,0,4.2,2.8c2.3.2,5.4-1.3,8.2-4a22.76,22.76,0,0,0,4.6-6.2,23.23,23.23,0,0,1,4.5-6.3c1.9-1.9,3.1-2.6,5-2.9,4.2-.7,8.1,2.3,9.1,7a9.22,9.22,0,0,1-.1,3.8,10,10,0,0,0-.4,1.1,19.56,19.56,0,0,1-2.6,4.9c-.5.7-1,1.4-1.1,1.5l-.6.6a2,2,0,0,0-.5.5,3.08,3.08,0,0,1-.6.6c-.2,0-.4.3-.4.3s-.3.4-.7.9a15.7,15.7,0,0,0-3.7,6.2,7.32,7.32,0,0,0,.1,3.6,4.81,4.81,0,0,0,1.7,2.3c.6.4.7.4,2,.4a3.48,3.48,0,0,0,2.2-.4A8.23,8.23,0,0,0,78.5,79c1.3-1.7,1.9-3.3,3.1-8.2,1-4.2,1.9-6.5,3.3-8.6.2-.3.6-.9.9-1.3a9.06,9.06,0,0,1,5-3.3,8.68,8.68,0,0,1,8.9,4.5,7.24,7.24,0,0,1,.9,3.7,4,4,0,0,1-.2,2,1.76,1.76,0,0,1-2.6,1.1c-.5-.3-.8-.9-.8-2.2,0-2.6-.5-4.2-1.7-5.3a4.32,4.32,0,0,0-3.2-1.1c-3,.2-5.4,3-5.9,6.8-.1.5-.2,1.1-.3,1.4s-.5,1.9-.9,3.4c-1.1,4.4-2,6.9-3.4,8.7-.3.4-.6.9-.8,1.2a6,6,0,0,1-2.9,1.8A9.28,9.28,0,0,1,72.7,84Z" transform="translate(-10.79 -12.79)"/><path class="cls-5" d="M72.2,80c-1.6-1-1.5-5.1.2-7.2l.3-.3,2.1,1c1.1.6,2.5,1.2,3,1.5.9.4,1,.4.9.8a7.92,7.92,0,0,1-3.5,4A4,4,0,0,1,72.2,80Z" transform="translate(-10.79 -12.79)"/><path class="cls-5" d="M48.6,65.5a3.84,3.84,0,0,1-2.5-2.3c-.4-1.5.7-3.8,2.6-5.7a10.55,10.55,0,0,1,2.7-2c.1,0,.4.4.8.8s1.6,1.7,2.7,2.9L57,61.3l-.8.8C53.5,64.6,50.5,65.9,48.6,65.5Z" transform="translate(-10.79 -12.79)"/><path class="cls-5" d="M109.2,59.9l-.4-.5-2.7.1a32.86,32.86,0,0,1-4.6-.1l-1.9-.2-.9-.7a12.29,12.29,0,0,0-4.3-2.1,9.68,9.68,0,0,0-4.5.2,1.73,1.73,0,0,1-1.2.1A45.13,45.13,0,0,1,83,54.2c-1.1-.6-1.1-.6-1.4-1.5a10.22,10.22,0,0,0-5.8-5.9c-.4-.2-1-.4-1.1-.5a5.73,5.73,0,0,0-1.8-.2H71.4L69,44l-2.1-2.1V40a6.24,6.24,0,0,0-.2-2.1,6.14,6.14,0,0,1-.5-1.1,10.67,10.67,0,0,0-2.8-4,8.51,8.51,0,0,0-3.5-1.6L59,31l-1.1-2.3c-1.2-2.5-1.1-2.3-2.1-2.1-.5.1-.3-.3.3-.7a4.3,4.3,0,0,1,2.7-.8c2,0,3.6,1.3,5,4.2a44.37,44.37,0,0,0,3.3,6.2c4.2,6.4,10.6,11.8,18.7,15.9a32.7,32.7,0,0,0,8.4,3,31.72,31.72,0,0,0,7.3.7c3.1,0,3.9.1,5.4.8a6.22,6.22,0,0,1,2.2,1.7,6.12,6.12,0,0,1,1.8,2.7c0,.1-.3.2-.6.2C109.6,60.4,109.6,60.4,109.2,59.9Z" transform="translate(-10.79 -12.79)"/></g><path class="cls-1" d="M170,97.7a23.76,23.76,0,0,1-3.9.3c-2.8,0-4.7-.5-5.9-1.5s-1.7-2.7-1.7-5.1V30.8c.6-.1,1.5-.3,2.8-.5a24.33,24.33,0,0,1,3.8-.3c2.6,0,4.6.5,5.8,1.4s1.9,2.7,1.9,5.3V58.3h27.4V30.8c.6-.1,1.5-.3,2.8-.5a24.33,24.33,0,0,1,3.8-.3c2.6,0,4.6.5,5.8,1.5s1.9,2.8,1.9,5.3V97.3c-.7.1-1.6.3-2.8.5a23.76,23.76,0,0,1-3.9.3c-2.8,0-4.7-.5-5.9-1.5s-1.7-2.7-1.7-5.1v-22H172.8V97.1A25.68,25.68,0,0,1,170,97.7Z" transform="translate(-10.79 -12.79)"/><path class="cls-1" d="M294.2,63.9A41.58,41.58,0,0,1,291.7,79a29.28,29.28,0,0,1-17.6,17.7,38.28,38.28,0,0,1-13.3,2.2,41.21,41.21,0,0,1-13.3-2.2A28.59,28.59,0,0,1,236.9,90a31,31,0,0,1-7-11,41.58,41.58,0,0,1-2.5-15.1A41.54,41.54,0,0,1,230,48.8a32.11,32.11,0,0,1,7.1-11,28.59,28.59,0,0,1,10.6-6.7,40.1,40.1,0,0,1,26.2,0,28.59,28.59,0,0,1,10.6,6.7,32.63,32.63,0,0,1,7.1,11A41.54,41.54,0,0,1,294.2,63.9Zm-14.6,0q0-11.4-5.1-17.4c-3.4-4-7.9-6-13.6-6a17.07,17.07,0,0,0-13.5,5.9q-5.1,5.85-5.1,17.4c0,7.7,1.7,13.5,5,17.4a18.62,18.62,0,0,0,27.2,0C277.9,77.4,279.6,71.6,279.6,63.9Z" transform="translate(-10.79 -12.79)"/><path class="cls-1" d="M353.1,33.1a11.27,11.27,0,0,1,.5,3.2,6.55,6.55,0,0,1-1.4,4.5,4.9,4.9,0,0,1-3.8,1.5H333.3V97.1c-.6.1-1.5.3-2.7.5a23.4,23.4,0,0,1-3.8.3c-2.8,0-4.7-.5-5.9-1.5s-1.8-2.7-1.8-5.1v-49H300.7a13.32,13.32,0,0,1-1-2.4,10.23,10.23,0,0,1-.5-3.2,6.37,6.37,0,0,1,1.4-4.5,4.9,4.9,0,0,1,3.8-1.5H352A13.82,13.82,0,0,1,353.1,33.1Z" transform="translate(-10.79 -12.79)"/><path class="cls-1" d="M423.3,63.6a43,43,0,0,1-2.6,15.5,28.32,28.32,0,0,1-7.3,11,29.42,29.42,0,0,1-11.3,6.5,45.38,45.38,0,0,1-14.7,2.2c-1.2,0-2.6,0-4.1-.1a34,34,0,0,1-4.5-.3c-1.6-.2-3.1-.4-4.7-.7a25.51,25.51,0,0,1-4.4-1.2c-3.5-1.3-5.3-3.5-5.3-6.6V36.2a4.5,4.5,0,0,1,1.1-3.1,9.05,9.05,0,0,1,3.1-1.8,34.33,34.33,0,0,1,8.8-1.8c3.2-.3,6.2-.4,9-.4a51.51,51.51,0,0,1,15.1,2.1,31.53,31.53,0,0,1,11.7,6.4,28.71,28.71,0,0,1,7.5,10.7A42.65,42.65,0,0,1,423.3,63.6Zm-14.5.1a28.38,28.38,0,0,0-1.6-10.2,18.83,18.83,0,0,0-4.5-7.1,18.57,18.57,0,0,0-6.9-4.2,27.35,27.35,0,0,0-8.7-1.4c-1.7,0-3.2.1-4.5.2s-2.6.2-3.9.4v45a23.52,23.52,0,0,0,4.2.6c1.6.1,3.1.2,4.7.2,6.8,0,12-2,15.8-5.9C406.9,77.3,408.8,71.5,408.8,63.7Z" transform="translate(-10.79 -12.79)"/><path class="cls-1" d="M499.6,63.9A41.58,41.58,0,0,1,497.1,79a29.28,29.28,0,0,1-17.6,17.7,38.28,38.28,0,0,1-13.3,2.2,41.21,41.21,0,0,1-13.3-2.2A28.59,28.59,0,0,1,442.3,90a31,31,0,0,1-7-11,41.58,41.58,0,0,1-2.5-15.1,41.54,41.54,0,0,1,2.6-15.1,32.11,32.11,0,0,1,7.1-11,28.59,28.59,0,0,1,10.6-6.7,40.1,40.1,0,0,1,26.2,0,28.59,28.59,0,0,1,10.6,6.7,32.63,32.63,0,0,1,7.1,11A41.54,41.54,0,0,1,499.6,63.9Zm-14.6,0q0-11.4-5.1-17.4c-3.4-4-7.9-6-13.6-6a17.07,17.07,0,0,0-13.5,5.9q-5.1,5.85-5.1,17.4c0,7.7,1.7,13.5,5,17.4a18.62,18.62,0,0,0,27.2,0C483.3,77.4,485,71.6,485,63.9Z" transform="translate(-10.79 -12.79)"/><path class="cls-1" d="M569.4,88a6.56,6.56,0,0,1-1.2,4.2,11.51,11.51,0,0,1-3.7,2.8,15.36,15.36,0,0,1-3.6,1.6,29.28,29.28,0,0,1-4.7,1.2c-1.7.3-3.5.6-5.3.8A52.2,52.2,0,0,1,531,96.9a32.09,32.09,0,0,1-11.5-6.3,28.2,28.2,0,0,1-7.6-10.8,41.24,41.24,0,0,1-2.7-15.7A38.33,38.33,0,0,1,512,48.8a30.3,30.3,0,0,1,7.7-11A32.69,32.69,0,0,1,531,31.2,41.77,41.77,0,0,1,544.9,29a47.44,47.44,0,0,1,8.9.8,28,28,0,0,1,6.9,2.2,11.84,11.84,0,0,1,4.4,3.3,6.43,6.43,0,0,1,1.5,4,6.15,6.15,0,0,1-1.2,3.8,9.06,9.06,0,0,1-2.7,2.5,44.13,44.13,0,0,0-6.9-3.5,26.54,26.54,0,0,0-10-1.6,23.48,23.48,0,0,0-8.9,1.6,22.15,22.15,0,0,0-7,4.5,20,20,0,0,0-4.5,7.3,28,28,0,0,0-1.6,10,29.53,29.53,0,0,0,1.6,10.4,20.53,20.53,0,0,0,4.5,7.3,17.56,17.56,0,0,0,6.9,4.3,27.35,27.35,0,0,0,8.7,1.4,33.88,33.88,0,0,0,5.8-.5,18.06,18.06,0,0,0,4.1-1.3V70.3h-14a9.91,9.91,0,0,1-1-2.3,10.38,10.38,0,0,1-.4-3.2,6.17,6.17,0,0,1,1.4-4.3,4.9,4.9,0,0,1,3.6-1.4h18.4a5.92,5.92,0,0,1,4.3,1.5,5.44,5.44,0,0,1,1.6,4.3V88Z" transform="translate(-10.79 -12.79)"/></svg>